<?xml version="1.0" encoding="UTF-8" standalone="no"?>
<svg
    version="1.1" viewBox="-239 241 32 32" xml:space="preserve" xmlns="http://www.w3.org/2000/svg" xmlns:xlink="http://www.w3.org/1999/xlink"
    class="svg-letter"
>
    <path class="sl1" d="M-218.9,264c-1.2,0.9-2.3,1.6-3.3,2c-1.1,0.4-2.3,0.7-3.6,0.7c-1.2,0-2.3-0.2-3.2-0.7c-0.9-0.5-1.6-1.1-2.1-2  s-0.7-1.7-0.7-2.7c0-1.3,0.4-2.4,1.2-3.3c0.8-0.9,2-1.5,3.4-1.8c0.3-0.1,1.1-0.2,2.2-0.5s2.2-0.5,3.1-0.7c0.9-0.2,1.8-0.5,2.8-0.7  c-0.1-1.3-0.3-2.2-0.8-2.8c-0.4-0.6-1.4-0.9-2.8-0.9c-1.2,0-2.1,0.2-2.7,0.5c-0.6,0.3-1.1,0.8-1.6,1.5c-0.4,0.7-0.7,1.1-0.9,1.3  c-0.2,0.2-0.6,0.3-1.2,0.3c-0.5,0-1-0.2-1.4-0.5c-0.4-0.3-0.6-0.8-0.6-1.3c0-0.8,0.3-1.7,0.9-2.4c0.6-0.8,1.5-1.4,2.8-2  c1.3-0.5,2.8-0.8,4.7-0.8c2.1,0,3.7,0.2,4.9,0.7c1.2,0.5,2,1.3,2.5,2.3c0.5,1.1,0.7,2.5,0.7,4.3c0,1.1,0,2.1,0,2.8s0,1.6,0,2.6  c0,0.9,0.1,1.8,0.4,2.8s0.4,1.6,0.4,1.9c0,0.5-0.2,0.9-0.7,1.3s-1,0.6-1.6,0.6c-0.5,0-1-0.2-1.4-0.7  C-217.9,265.6-218.4,264.9-218.9,264z M-219.3,257.1c-0.7,0.3-1.7,0.5-3,0.8c-1.3,0.3-2.3,0.5-2.8,0.6s-1,0.4-1.5,0.8  c-0.5,0.4-0.7,0.9-0.7,1.6c0,0.7,0.3,1.3,0.8,1.8c0.5,0.5,1.3,0.8,2.1,0.8c0.9,0,1.8-0.2,2.6-0.6c0.8-0.4,1.4-0.9,1.8-1.6  c0.4-0.7,0.6-1.9,0.6-3.6V257.1z"/>
    <path class="sl2" d="M-232,260.7c0.1,0.7,0.3,1.4,0.7,2c0.5,0.8,1.2,1.5,2.1,2c0.9,0.5,2,0.7,3.2,0.7  c1.3,0,2.5-0.2,3.6-0.7c1.1-0.4,2.2-1.1,3.3-2c0.5,0.9,1,1.5,1.5,2s1,0.7,1.4,0.7c0.6,0,1.1-0.2,1.6-0.6c0.2-0.2,0.4-0.4,0.6-0.6  c0.1,0.3,0.1,0.5,0.1,0.6c0,0.5-0.2,0.9-0.7,1.3s-1,0.6-1.6,0.6c-0.5,0-1-0.2-1.4-0.7c-0.5-0.5-1-1.1-1.5-2c-1.2,0.9-2.3,1.6-3.3,2  c-1.1,0.4-2.3,0.7-3.6,0.7c-1.2,0-2.3-0.2-3.2-0.7c-0.9-0.5-1.6-1.1-2.1-2s-0.7-1.7-0.7-2.7C-232,261.1-232,260.9-232,260.7z"/>
    <path class="sl3" d="M-218.9,264c-1.2,0.9-2.3,1.6-3.3,2c-1.1,0.4-2.3,0.7-3.6,0.7c-1.2,0-2.3-0.2-3.2-0.7c-0.9-0.5-1.6-1.1-2.1-2  s-0.7-1.7-0.7-2.7c0-1.3,0.4-2.4,1.2-3.3c0.8-0.9,2-1.5,3.4-1.8c0.3-0.1,1.1-0.2,2.2-0.5s2.2-0.5,3.1-0.7c0.9-0.2,1.8-0.5,2.8-0.7  c-0.1-1.3-0.3-2.2-0.8-2.8c-0.4-0.6-1.4-0.9-2.8-0.9c-1.2,0-2.1,0.2-2.7,0.5c-0.6,0.3-1.1,0.8-1.6,1.5c-0.4,0.7-0.7,1.1-0.9,1.3  c-0.2,0.2-0.6,0.3-1.2,0.3c-0.5,0-1-0.2-1.4-0.5c-0.4-0.3-0.6-0.8-0.6-1.3c0-0.8,0.3-1.7,0.9-2.4c0.6-0.8,1.5-1.4,2.8-2  c1.3-0.5,2.8-0.8,4.7-0.8c2.1,0,3.7,0.2,4.9,0.7c1.2,0.5,2,1.3,2.5,2.3c0.5,1.1,0.7,2.5,0.7,4.3c0,1.1,0,2.1,0,2.8s0,1.6,0,2.6  c0,0.9,0.1,1.8,0.4,2.8s0.4,1.6,0.4,1.9c0,0.5-0.2,0.9-0.7,1.3s-1,0.6-1.6,0.6c-0.5,0-1-0.2-1.4-0.7  C-217.9,265.6-218.4,264.9-218.9,264z M-219.3,257.1c-0.7,0.3-1.7,0.5-3,0.8c-1.3,0.3-2.3,0.5-2.8,0.6s-1,0.4-1.5,0.8  c-0.5,0.4-0.7,0.9-0.7,1.6c0,0.7,0.3,1.3,0.8,1.8c0.5,0.5,1.3,0.8,2.1,0.8c0.9,0,1.8-0.2,2.6-0.6c0.8-0.4,1.4-0.9,1.8-1.6  c0.4-0.7,0.6-1.9,0.6-3.6V257.1z"/>
    <path class="sl4" d="M-229.1,250.6c1.4-1.4,3.3-2.1,5.7-2.1" />
</svg>