<?xml version="1.0" ?>
<svg
    version="1.1" viewBox="-239 241 32 32" xml:space="preserve" xmlns="http://www.w3.org/2000/svg" xmlns:xlink="http://www.w3.org/1999/xlink"
    class="svg-letter"
>
    <path class="sl1" d="M-213.4,260.9c0,0.6-0.2,1.3-0.5,2c-0.4,0.7-0.9,1.4-1.7,2c-0.8,0.6-1.7,1.1-2.8,1.5c-1.1,0.4-2.4,0.6-3.9,0.6  c-3,0-5.4-0.9-7.1-2.7c-1.7-1.8-2.6-4.1-2.6-7.1c0-2,0.4-3.8,1.2-5.4c0.8-1.5,1.9-2.7,3.4-3.6c1.5-0.8,3.2-1.3,5.3-1.3  c1.3,0,2.4,0.2,3.5,0.6c1.1,0.4,2,0.9,2.7,1.4s1.3,1.2,1.7,1.9s0.6,1.3,0.6,1.9c0,0.6-0.2,1.1-0.7,1.5c-0.4,0.4-1,0.6-1.6,0.6  c-0.4,0-0.7-0.1-1-0.3c-0.3-0.2-0.6-0.5-0.9-1c-0.6-0.9-1.2-1.6-1.9-2.1c-0.7-0.5-1.5-0.7-2.5-0.7c-1.5,0-2.6,0.6-3.5,1.7  c-0.9,1.1-1.3,2.7-1.3,4.7c0,0.9,0.1,1.8,0.3,2.5s0.6,1.4,1,2c0.4,0.5,1,1,1.6,1.2c0.6,0.3,1.3,0.4,2,0.4c1,0,1.8-0.2,2.5-0.7  c0.7-0.5,1.3-1.2,1.9-2.1c0.3-0.6,0.6-1,1-1.3c0.3-0.3,0.8-0.5,1.3-0.5c0.6,0,1.1,0.2,1.5,0.7S-213.4,260.4-213.4,260.9z"/>
    <path class="sl2" d="M-232,256.6c0.1,2.7,1,4.9,2.5,6.5c1.7,1.8,4.1,2.7,7.1,2.7c1.4,0,2.7-0.2,3.9-0.6  c1.1-0.4,2.1-0.9,2.8-1.5c0.8-0.6,1.3-1.3,1.7-2c0.2-0.4,0.4-0.9,0.5-1.3c0.1,0.2,0.1,0.4,0.1,0.5c0,0.6-0.2,1.3-0.5,2  c-0.4,0.7-0.9,1.4-1.7,2c-0.8,0.6-1.7,1.1-2.8,1.5c-1.1,0.4-2.4,0.6-3.9,0.6c-3,0-5.4-0.9-7.1-2.7c-1.7-1.8-2.6-4.1-2.6-7.1  C-232,257-232,256.8-232,256.6z" />
    <path class="sl3" d="M-213.4,260.9c0,0.6-0.2,1.3-0.5,2c-0.4,0.7-0.9,1.4-1.7,2c-0.8,0.6-1.7,1.1-2.8,1.5c-1.1,0.4-2.4,0.6-3.9,0.6  c-3,0-5.4-0.9-7.1-2.7c-1.7-1.8-2.6-4.1-2.6-7.1c0-2,0.4-3.8,1.2-5.4c0.8-1.5,1.9-2.7,3.4-3.6c1.5-0.8,3.2-1.3,5.3-1.3  c1.3,0,2.4,0.2,3.5,0.6c1.1,0.4,2,0.9,2.7,1.4s1.3,1.2,1.7,1.9s0.6,1.3,0.6,1.9c0,0.6-0.2,1.1-0.7,1.5c-0.4,0.4-1,0.6-1.6,0.6  c-0.4,0-0.7-0.1-1-0.3c-0.3-0.2-0.6-0.5-0.9-1c-0.6-0.9-1.2-1.6-1.9-2.1c-0.7-0.5-1.5-0.7-2.5-0.7c-1.5,0-2.6,0.6-3.5,1.7  c-0.9,1.1-1.3,2.7-1.3,4.7c0,0.9,0.1,1.8,0.3,2.5s0.6,1.4,1,2c0.4,0.5,1,1,1.6,1.2c0.6,0.3,1.3,0.4,2,0.4c1,0,1.8-0.2,2.5-0.7  c0.7-0.5,1.3-1.2,1.9-2.1c0.3-0.6,0.6-1,1-1.3c0.3-0.3,0.8-0.5,1.3-0.5c0.6,0,1.1,0.2,1.5,0.7S-213.4,260.4-213.4,260.9z"/>
    <path class="sl4" d="M-229.9,253.2c0.5-2.3,2.1-3.9,4.8-4.8" />
</svg>