<?xml version="1.0" ?>
<svg
    version="1.1" viewBox="-239 241 32 32" xml:space="preserve" xmlns="http://www.w3.org/2000/svg" xmlns:xlink="http://www.w3.org/1999/xlink"
    class="svg-letter"
>
    <path class="sl1" d="M-226,263.5v-18.9c0-0.9,0.2-1.5,0.6-2c0.4-0.4,0.9-0.7,1.6-0.7s1.2,0.2,1.6,0.7c0.4,0.4,0.6,1.1,0.6,2v18.9  c0,0.9-0.2,1.5-0.6,2c-0.4,0.4-0.9,0.7-1.6,0.7c-0.6,0-1.2-0.2-1.6-0.7C-225.8,265-226,264.3-226,263.5z"/>
    <path class="sl2" d="M-226,261.6c0,0.8,0.2,1.5,0.6,2c0.4,0.5,0.9,0.7,1.6,0.7c0.6,0,1.2-0.2,1.6-0.7  c0.4-0.4,0.6-1.1,0.6-2v1.9c0,0.9-0.2,1.5-0.6,2c-0.4,0.4-0.9,0.7-1.6,0.7c-0.6,0-1.2-0.2-1.6-0.7c-0.4-0.5-0.6-1.1-0.6-2V261.6z"/>
    <path class="sl3" d="M-226,263.5v-18.9c0-0.9,0.2-1.5,0.6-2c0.4-0.4,0.9-0.7,1.6-0.7s1.2,0.2,1.6,0.7c0.4,0.4,0.6,1.1,0.6,2v18.9  c0,0.9-0.2,1.5-0.6,2c-0.4,0.4-0.9,0.7-1.6,0.7c-0.6,0-1.2-0.2-1.6-0.7C-225.8,265-226,264.3-226,263.5z"/>
    <path class="sl4" d="M-225.1,247.6v6.5" />
</svg>